{
	"asset":{
		"generator":"Khronos glTF Blender I/O v4.0.44",
		"version":"2.0"
	},
	"scene":0,
	"scenes":[
		{
			"name":"Scene",
			"nodes":[
				0
			]
		}
	],
	"nodes":[
		{
			"mesh":0,
			"name":"Hull"
		}
	],
	"materials":[
		{
			"doubleSided":true,
			"name":"Baked Texture",
			"pbrMetallicRoughness":{
				"baseColorTexture":{
					"index":0
				},
				"metallicFactor":0,
				"roughnessFactor":0.5
			}
		}
	],
	"meshes":[
		{
			"name":"Cube.002",
			"primitives":[
				{
					"attributes":{
						"POSITION":0,
						"NORMAL":1,
						"TEXCOORD_0":2,
						"TEXCOORD_1":3
					},
					"indices":4,
					"material":0
				}
			]
		}
	],
	"textures":[
		{
			"sampler":0,
			"source":0
		}
	],
	"images":[
		{
			"mimeType":"image/png",
			"name":"bg_4_big_ship_texture",
			"uri":"bg_4_big_ship_texture.png"
		}
	],
	"accessors":[
		{
			"bufferView":0,
			"componentType":5126,
			"count":2518,
			"max":[
				2.2442524433135986,
				5.87499475479126,
				6.768824577331543
			],
			"min":[
				-2.251483201980591,
				-0.3941970765590668,
				-3.6843528747558594
			],
			"type":"VEC3"
		},
		{
			"bufferView":1,
			"componentType":5126,
			"count":2518,
			"type":"VEC3"
		},
		{
			"bufferView":2,
			"componentType":5126,
			"count":2518,
			"type":"VEC2"
		},
		{
			"bufferView":3,
			"componentType":5126,
			"count":2518,
			"type":"VEC2"
		},
		{
			"bufferView":4,
			"componentType":5123,
			"count":4995,
			"type":"SCALAR"
		}
	],
	"bufferViews":[
		{
			"buffer":0,
			"byteLength":30216,
			"byteOffset":0,
			"target":34962
		},
		{
			"buffer":0,
			"byteLength":30216,
			"byteOffset":30216,
			"target":34962
		},
		{
			"buffer":0,
			"byteLength":20144,
			"byteOffset":60432,
			"target":34962
		},
		{
			"buffer":0,
			"byteLength":20144,
			"byteOffset":80576,
			"target":34962
		},
		{
			"buffer":0,
			"byteLength":9990,
			"byteOffset":100720,
			"target":34963
		}
	],
	"samplers":[
		{
			"magFilter":9729,
			"minFilter":9987
		}
	],
	"buffers":[
		{
			"byteLength":110712,
			"uri":"bg_4_big_pirate_ship.bin"
		}
	]
}
