{
	"asset":{
		"generator":"Khronos glTF Blender I/O v4.0.44",
		"version":"2.0"
	},
	"scene":0,
	"scenes":[
		{
			"name":"Scene",
			"nodes":[
				0
			]
		}
	],
	"nodes":[
		{
			"mesh":0,
			"name":"Boat",
			"translation":[
				0,
				-0.3223613500595093,
				-0.4096686840057373
			]
		}
	],
	"materials":[
		{
			"doubleSided":true,
			"name":"Tex ture Baked",
			"pbrMetallicRoughness":{
				"baseColorTexture":{
					"index":0
				},
				"metallicFactor":0,
				"roughnessFactor":0.5
			}
		}
	],
	"meshes":[
		{
			"name":"Plane.001",
			"primitives":[
				{
					"attributes":{
						"POSITION":0,
						"NORMAL":1,
						"TEXCOORD_0":2
					},
					"indices":3,
					"material":0
				}
			]
		}
	],
	"textures":[
		{
			"sampler":0,
			"source":0
		}
	],
	"images":[
		{
			"mimeType":"image/png",
			"name":"player_1_texture",
			"uri":"player_1_texture.png"
		}
	],
	"accessors":[
		{
			"bufferView":0,
			"componentType":5126,
			"count":3464,
			"max":[
				1.5724871158599854,
				3.446580171585083,
				5.075194835662842
			],
			"min":[
				-1.458848237991333,
				-0.4024348556995392,
				-2.978060007095337
			],
			"type":"VEC3"
		},
		{
			"bufferView":1,
			"componentType":5126,
			"count":3464,
			"type":"VEC3"
		},
		{
			"bufferView":2,
			"componentType":5126,
			"count":3464,
			"type":"VEC2"
		},
		{
			"bufferView":3,
			"componentType":5123,
			"count":5622,
			"type":"SCALAR"
		}
	],
	"bufferViews":[
		{
			"buffer":0,
			"byteLength":41568,
			"byteOffset":0,
			"target":34962
		},
		{
			"buffer":0,
			"byteLength":41568,
			"byteOffset":41568,
			"target":34962
		},
		{
			"buffer":0,
			"byteLength":27712,
			"byteOffset":83136,
			"target":34962
		},
		{
			"buffer":0,
			"byteLength":11244,
			"byteOffset":110848,
			"target":34963
		}
	],
	"samplers":[
		{
			"magFilter":9729,
			"minFilter":9987
		}
	],
	"buffers":[
		{
			"byteLength":122092,
			"uri":"bg_small_boat_player_1_blue.bin"
		}
	]
}
