{
	"asset":{
		"generator":"Khronos glTF Blender I/O v4.0.44",
		"version":"2.0"
	},
	"scene":0,
	"scenes":[
		{
			"name":"Scene",
			"nodes":[
				2,
				3
			]
		}
	],
	"nodes":[
		{
			"mesh":0,
			"name":"Plane",
			"rotation":[
				0,
				0,
				-0.7071068286895752,
				0.7071068286895752
			],
			"translation":[
				0,
				2.49242901802063,
				-1.1385166645050049
			]
		},
		{
			"children":[
				0
			],
			"mesh":1,
			"name":"Vert",
			"rotation":[
				0,
				-0.4901946187019348,
				0,
				0.8716131448745728
			],
			"scale":[
				1.1810954809188843,
				1.1810954809188843,
				1.1810954809188843
			],
			"translation":[
				0,
				-0.31697943806648254,
				1.3668873310089111
			]
		},
		{
			"children":[
				1
			],
			"mesh":2,
			"name":"Plane.001"
		},
		{
			"mesh":3,
			"name":"Plane.002"
		}
	],
	"materials":[
		{
			"doubleSided":true,
			"name":"Sail Blue",
			"pbrMetallicRoughness":{
				"baseColorFactor":[
					0.9912683963775635,
					0.9910584688186646,
					0.9910302758216858,
					1
				],
				"metallicFactor":0,
				"roughnessFactor":0.5
			}
		},
		{
			"doubleSided":true,
			"name":"Sail Red",
			"pbrMetallicRoughness":{
				"baseColorFactor":[
					0.22335869073867798,
					0.5187981128692627,
					0.8006061315536499,
					1
				],
				"metallicFactor":0,
				"roughnessFactor":0.5
			}
		},
		{
			"doubleSided":true,
			"name":"Hull",
			"pbrMetallicRoughness":{
				"baseColorFactor":[
					0.8000937700271606,
					0.4344916343688965,
					0.15677493810653687,
					1
				],
				"metallicFactor":0,
				"roughnessFactor":0.5
			}
		},
		{
			"doubleSided":true,
			"name":"Hull Dark",
			"pbrMetallicRoughness":{
				"baseColorFactor":[
					0.38933664560317993,
					0.17093563079833984,
					0.03627604991197586,
					1
				],
				"metallicFactor":0,
				"roughnessFactor":0.5
			}
		}
	],
	"meshes":[
		{
			"name":"Plane.008",
			"primitives":[
				{
					"attributes":{
						"POSITION":0,
						"NORMAL":1,
						"TEXCOORD_0":2
					},
					"indices":3,
					"material":0
				},
				{
					"attributes":{
						"POSITION":4,
						"NORMAL":5,
						"TEXCOORD_0":6
					},
					"indices":7,
					"material":1
				}
			]
		},
		{
			"name":"Vert.001",
			"primitives":[
				{
					"attributes":{
						"POSITION":8,
						"NORMAL":9,
						"TEXCOORD_0":10
					},
					"indices":11,
					"material":2
				}
			]
		},
		{
			"name":"Plane.001",
			"primitives":[
				{
					"attributes":{
						"POSITION":12,
						"NORMAL":13,
						"TEXCOORD_0":14
					},
					"indices":15,
					"material":2
				},
				{
					"attributes":{
						"POSITION":16,
						"NORMAL":17,
						"TEXCOORD_0":18
					},
					"indices":19,
					"material":3
				}
			]
		},
		{
			"name":"Plane.007",
			"primitives":[
				{
					"attributes":{
						"POSITION":20,
						"NORMAL":21,
						"TEXCOORD_0":22
					},
					"indices":23
				}
			]
		}
	],
	"accessors":[
		{
			"bufferView":0,
			"componentType":5126,
			"count":41,
			"max":[
				1.1514489650726318,
				0.7786603569984436,
				1.1406499147415161
			],
			"min":[
				-2.9105958938598633,
				0.03163188323378563,
				-1.313463568687439
			],
			"type":"VEC3"
		},
		{
			"bufferView":1,
			"componentType":5126,
			"count":41,
			"type":"VEC3"
		},
		{
			"bufferView":2,
			"componentType":5126,
			"count":41,
			"type":"VEC2"
		},
		{
			"bufferView":3,
			"componentType":5123,
			"count":63,
			"type":"SCALAR"
		},
		{
			"bufferView":4,
			"componentType":5126,
			"count":36,
			"max":[
				0.5724273324012756,
				0.7786603569984436,
				1.1406499147415161
			],
			"min":[
				-2.3124101161956787,
				0.28051042556762695,
				-0.9609536528587341
			],
			"type":"VEC3"
		},
		{
			"bufferView":5,
			"componentType":5126,
			"count":36,
			"type":"VEC3"
		},
		{
			"bufferView":6,
			"componentType":5126,
			"count":36,
			"type":"VEC2"
		},
		{
			"bufferView":7,
			"componentType":5123,
			"count":54,
			"type":"SCALAR"
		},
		{
			"bufferView":8,
			"componentType":5126,
			"count":72,
			"max":[
				0.09999999403953552,
				5.403024673461914,
				0.08660253882408142
			],
			"min":[
				-0.09999999403953552,
				0,
				-2.4519803524017334
			],
			"type":"VEC3"
		},
		{
			"bufferView":9,
			"componentType":5126,
			"count":72,
			"type":"VEC3"
		},
		{
			"bufferView":10,
			"componentType":5126,
			"count":72,
			"type":"VEC2"
		},
		{
			"bufferView":11,
			"componentType":5123,
			"count":120,
			"type":"SCALAR"
		},
		{
			"bufferView":12,
			"componentType":5126,
			"count":1706,
			"max":[
				1.4135839939117432,
				0.6372653245925903,
				4.524489402770996
			],
			"min":[
				-1.4135839939117432,
				-0.4280281066894531,
				-1.854315161705017
			],
			"type":"VEC3"
		},
		{
			"bufferView":13,
			"componentType":5126,
			"count":1706,
			"type":"VEC3"
		},
		{
			"bufferView":14,
			"componentType":5126,
			"count":1706,
			"type":"VEC2"
		},
		{
			"bufferView":15,
			"componentType":5123,
			"count":3054,
			"type":"SCALAR"
		},
		{
			"bufferView":16,
			"componentType":5126,
			"count":411,
			"max":[
				1.3041722774505615,
				0.6372653245925903,
				4.399187088012695
			],
			"min":[
				-1.3041722774505615,
				-0.3223476707935333,
				-1.7304991483688354
			],
			"type":"VEC3"
		},
		{
			"bufferView":17,
			"componentType":5126,
			"count":411,
			"type":"VEC3"
		},
		{
			"bufferView":18,
			"componentType":5126,
			"count":411,
			"type":"VEC2"
		},
		{
			"bufferView":19,
			"componentType":5123,
			"count":732,
			"type":"SCALAR"
		},
		{
			"bufferView":20,
			"componentType":5126,
			"count":55,
			"max":[
				1.3041722774505615,
				0.6372653245925903,
				4.399187088012695
			],
			"min":[
				0,
				-0.3169793486595154,
				-1.743735909461975
			],
			"type":"VEC3"
		},
		{
			"bufferView":21,
			"componentType":5126,
			"count":55,
			"type":"VEC3"
		},
		{
			"bufferView":22,
			"componentType":5126,
			"count":55,
			"type":"VEC2"
		},
		{
			"bufferView":23,
			"componentType":5123,
			"count":87,
			"type":"SCALAR"
		}
	],
	"bufferViews":[
		{
			"buffer":0,
			"byteLength":492,
			"byteOffset":0,
			"target":34962
		},
		{
			"buffer":0,
			"byteLength":492,
			"byteOffset":492,
			"target":34962
		},
		{
			"buffer":0,
			"byteLength":328,
			"byteOffset":984,
			"target":34962
		},
		{
			"buffer":0,
			"byteLength":126,
			"byteOffset":1312,
			"target":34963
		},
		{
			"buffer":0,
			"byteLength":432,
			"byteOffset":1440,
			"target":34962
		},
		{
			"buffer":0,
			"byteLength":432,
			"byteOffset":1872,
			"target":34962
		},
		{
			"buffer":0,
			"byteLength":288,
			"byteOffset":2304,
			"target":34962
		},
		{
			"buffer":0,
			"byteLength":108,
			"byteOffset":2592,
			"target":34963
		},
		{
			"buffer":0,
			"byteLength":864,
			"byteOffset":2700,
			"target":34962
		},
		{
			"buffer":0,
			"byteLength":864,
			"byteOffset":3564,
			"target":34962
		},
		{
			"buffer":0,
			"byteLength":576,
			"byteOffset":4428,
			"target":34962
		},
		{
			"buffer":0,
			"byteLength":240,
			"byteOffset":5004,
			"target":34963
		},
		{
			"buffer":0,
			"byteLength":20472,
			"byteOffset":5244,
			"target":34962
		},
		{
			"buffer":0,
			"byteLength":20472,
			"byteOffset":25716,
			"target":34962
		},
		{
			"buffer":0,
			"byteLength":13648,
			"byteOffset":46188,
			"target":34962
		},
		{
			"buffer":0,
			"byteLength":6108,
			"byteOffset":59836,
			"target":34963
		},
		{
			"buffer":0,
			"byteLength":4932,
			"byteOffset":65944,
			"target":34962
		},
		{
			"buffer":0,
			"byteLength":4932,
			"byteOffset":70876,
			"target":34962
		},
		{
			"buffer":0,
			"byteLength":3288,
			"byteOffset":75808,
			"target":34962
		},
		{
			"buffer":0,
			"byteLength":1464,
			"byteOffset":79096,
			"target":34963
		},
		{
			"buffer":0,
			"byteLength":660,
			"byteOffset":80560,
			"target":34962
		},
		{
			"buffer":0,
			"byteLength":660,
			"byteOffset":81220,
			"target":34962
		},
		{
			"buffer":0,
			"byteLength":440,
			"byteOffset":81880,
			"target":34962
		},
		{
			"buffer":0,
			"byteLength":174,
			"byteOffset":82320,
			"target":34963
		}
	],
	"buffers":[
		{
			"byteLength":82496,
			"uri":"bg_small_boat.bin"
		}
	]
}
