{
	"asset":{
		"generator":"Khronos glTF Blender I/O v4.0.44",
		"version":"2.0"
	},
	"scene":0,
	"scenes":[
		{
			"name":"Scene",
			"nodes":[
				0
			]
		}
	],
	"nodes":[
		{
			"mesh":0,
			"name":"Meat",
			"scale":[
				0.9844277501106262,
				0.9844277501106262,
				0.9844277501106262
			]
		}
	],
	"materials":[
		{
			"doubleSided":true,
			"name":"Meat Material",
			"pbrMetallicRoughness":{
				"baseColorTexture":{
					"index":0
				},
				"metallicFactor":0,
				"roughnessFactor":0.5
			}
		}
	],
	"meshes":[
		{
			"name":"Plane.001",
			"primitives":[
				{
					"attributes":{
						"POSITION":0,
						"NORMAL":1,
						"TEXCOORD_0":2
					},
					"indices":3,
					"material":0
				}
			]
		}
	],
	"textures":[
		{
			"sampler":0,
			"source":0
		}
	],
	"images":[
		{
			"mimeType":"image/png",
			"name":"Meat Texture",
			"uri":"Meat%20Texture.png"
		}
	],
	"accessors":[
		{
			"bufferView":0,
			"componentType":5126,
			"count":612,
			"max":[
				2.528707265853882,
				1.9300270080566406,
				1.369261622428894
			],
			"min":[
				-1.290562629699707,
				-1.610278844833374,
				-1.1785614490509033
			],
			"type":"VEC3"
		},
		{
			"bufferView":1,
			"componentType":5126,
			"count":612,
			"type":"VEC3"
		},
		{
			"bufferView":2,
			"componentType":5126,
			"count":612,
			"type":"VEC2"
		},
		{
			"bufferView":3,
			"componentType":5123,
			"count":1200,
			"type":"SCALAR"
		}
	],
	"bufferViews":[
		{
			"buffer":0,
			"byteLength":7344,
			"byteOffset":0,
			"target":34962
		},
		{
			"buffer":0,
			"byteLength":7344,
			"byteOffset":7344,
			"target":34962
		},
		{
			"buffer":0,
			"byteLength":4896,
			"byteOffset":14688,
			"target":34962
		},
		{
			"buffer":0,
			"byteLength":2400,
			"byteOffset":19584,
			"target":34963
		}
	],
	"samplers":[
		{
			"magFilter":9729,
			"minFilter":9987
		}
	],
	"buffers":[
		{
			"byteLength":21984,
			"uri":"pu_3_Meat%20on%20the%20bone.bin"
		}
	]
}
